<svg width="24" height="24" viewBox="0 0 24 24" fill="none" xmlns="http://www.w3.org/2000/svg">
<path d="M14 5C14 5.08781 13.9943 5.17429 13.9834 5.25911C17.1435 6.16006 18 9.19061 18 10.8333V17H20C20.5523 17 21 17.4477 21 18C21 18.5523 20.5523 19 20 19H4C3.44772 19 3 18.5523 3 18C3 17.4477 3.44772 17 4 17H6V10.8333C6 9.19061 6.85648 6.16006 10.0166 5.25911C10.0057 5.17429 10 5.08781 10 5C10 3.89543 10.8954 3 12 3C13.1046 3 14 3.89543 14 5Z" fill="#BABABA"/>
<path d="M14 20C14 21.1046 13.1046 22 12 22C10.8954 22 10 21.1046 10 20H14Z" fill="#BABABA"/>
<circle cx="17" cy="7" r="3" fill="#E74141"/>
</svg>
