<svg width="24" height="24" viewBox="0 0 24 24" fill="none" xmlns="http://www.w3.org/2000/svg">
<path fill-rule="evenodd" clip-rule="evenodd" d="M10 5.5C7.51472 5.5 5.5 7.51472 5.5 10C5.5 12.4853 7.51472 14.5 10 14.5C12.4853 14.5 14.5 12.4853 14.5 10C14.5 7.51472 12.4853 5.5 10 5.5ZM4 10C4 6.68629 6.68629 4 10 4C13.3137 4 16 6.68629 16 10C16 13.3137 13.3137 16 10 16C6.68629 16 4 13.3137 4 10Z" fill="#A4A4A4"/>
<path fill-rule="evenodd" clip-rule="evenodd" d="M13.2197 13.2197C13.5126 12.9268 13.9874 12.9268 14.2803 13.2197L18.7803 17.7197C19.0732 18.0126 19.0732 18.4874 18.7803 18.7803C18.4874 19.0732 18.0126 19.0732 17.7197 18.7803L13.2197 14.2803C12.9268 13.9874 12.9268 13.5126 13.2197 13.2197Z" fill="#A4A4A4"/>
</svg>
