<svg width="24" height="24" viewBox="0 0 24 24" fill="none" xmlns="http://www.w3.org/2000/svg">
<path fill-rule="evenodd" clip-rule="evenodd" d="M0.213696 9.51651C0.437874 9.19303 0.806431 9.00003 1.20001 9.00003H22.8C23.1936 9.00003 23.5621 9.19303 23.7863 9.51651C24.0105 9.84 24.0618 10.2529 23.9236 10.6214L20.3236 20.2214C20.148 20.6897 19.7002 21 19.2 21H4.8C4.29979 21 3.85205 20.6897 3.67641 20.2214L0.0764118 10.6214C-0.0617816 10.2529 -0.0104823 9.84 0.213696 9.51651ZM2.93161 11.4L5.6316 18.6H18.3684L21.0684 11.4H2.93161Z" fill="white"/>
<path fill-rule="evenodd" clip-rule="evenodd" d="M10.3496 3.263C10.8671 3.67701 10.9511 4.43216 10.537 4.94967L5.73705 10.9497C5.32304 11.4672 4.56788 11.5511 4.05037 11.1371C3.53286 10.7231 3.44895 9.96791 3.86296 9.45039L8.66296 3.45041C9.07697 2.9329 9.83212 2.84899 10.3496 3.263Z" fill="white"/>
<path fill-rule="evenodd" clip-rule="evenodd" d="M13.6504 3.263C13.1329 3.67701 13.0489 4.43216 13.463 4.94967L18.263 10.9497C18.677 11.4672 19.4321 11.5511 19.9496 11.1371C20.4671 10.7231 20.551 9.96791 20.137 9.45039L15.337 3.45041C14.923 2.9329 14.1679 2.84899 13.6504 3.263Z" fill="white"/>
<path fill-rule="evenodd" clip-rule="evenodd" d="M7.2 12.6C7.86274 12.6 8.4 13.1373 8.4 13.8V16.2C8.4 16.8628 7.86274 17.4 7.2 17.4C6.53726 17.4 6 16.8628 6 16.2V13.8C6 13.1373 6.53726 12.6 7.2 12.6Z" fill="white"/>
<path fill-rule="evenodd" clip-rule="evenodd" d="M16.8 12.6C17.4627 12.6 18 13.1373 18 13.8V16.2C18 16.8628 17.4627 17.4 16.8 17.4C16.1373 17.4 15.6 16.8628 15.6 16.2V13.8C15.6 13.1373 16.1373 12.6 16.8 12.6Z" fill="white"/>
<path fill-rule="evenodd" clip-rule="evenodd" d="M12 12.6C12.6627 12.6 13.2 13.1373 13.2 13.8V16.2C13.2 16.8628 12.6627 17.4 12 17.4C11.3373 17.4 10.8 16.8628 10.8 16.2V13.8C10.8 13.1373 11.3373 12.6 12 12.6Z" fill="white"/>
</svg>
