<svg width="24" height="24" viewBox="0 0 24 24" fill="none" xmlns="http://www.w3.org/2000/svg">
<path fill-rule="evenodd" clip-rule="evenodd" d="M2 5.07143C2 4.47969 2.49746 4 3.11111 4H20.8889C21.5025 4 22 4.47969 22 5.07143C22 5.66316 21.5025 6.14286 20.8889 6.14286H3.11111C2.49746 6.14286 2 5.66316 2 5.07143Z" fill="black"/>
<path fill-rule="evenodd" clip-rule="evenodd" d="M2 11.5C2 10.9083 2.49746 10.4286 3.11111 10.4286H20.8889C21.5025 10.4286 22 10.9083 22 11.5C22 12.0917 21.5025 12.5714 20.8889 12.5714H3.11111C2.49746 12.5714 2 12.0917 2 11.5Z" fill="black"/>
<path fill-rule="evenodd" clip-rule="evenodd" d="M2 17.9286C2 17.3368 2.49746 16.8571 3.11111 16.8571H20.8889C21.5025 16.8571 22 17.3368 22 17.9286C22 18.5203 21.5025 19 20.8889 19H3.11111C2.49746 19 2 18.5203 2 17.9286Z" fill="black"/>
</svg>
